<?xml version="1.0" encoding="UTF-8" standalone="no"?>
<!-- Created with Inkscape (http://www.inkscape.org/) -->

<svg
   version="1.1"
   id="svg1"
   width="1978.6667"
   height="733.33331"
   viewBox="0 0 1978.6667 733.33331"
   xmlns="http://www.w3.org/2000/svg"
   xmlns:svg="http://www.w3.org/2000/svg">
  <defs
     id="defs1" />
  <g
     id="g1">
    <path
       style="fill:#000000"
       d="m 455.33335,692.71947 c -11.72246,-2.14334 -25.86925,-6.0959 -26.71479,-7.46402 -0.65731,-1.06356 3.90195,-22.22041 5.03198,-23.35043 0.34365,-0.34366 5.66287,0.64128 11.82048,2.18874 7.46963,1.87718 17.18625,3.02423 29.19567,3.44656 26.32274,0.9257 30.60907,-1.93832 30.64701,-20.4776 0.0344,-16.81409 -1.55372,-18.1631 -29.42215,-24.99215 -21.49813,-5.26803 -33.83438,-10.63311 -38.28214,-16.64902 -5.08598,-6.87916 -7.33196,-18.8431 -6.64488,-35.3962 0.69642,-16.77822 2.67912,-22.80679 9.9574,-30.2763 9.91369,-10.17418 26.00061,-13.94141 53.72492,-12.58131 15.88315,0.7792 36.44345,3.47338 37.93357,4.97075 0.76356,0.76728 -2.42237,23.49241 -3.43455,24.49853 -0.46978,0.46697 -7.14678,-0.0853 -14.83778,-1.22733 -19.34674,-2.87272 -38.9371,-2.75984 -44.95619,0.25903 -6.62782,3.32418 -8.18724,7.20336 -7.7302,19.22945 0.50768,13.35839 2.57769,15.69975 17.45801,19.74642 29.8229,8.11029 35.14187,9.76057 40.95744,12.70754 13.45589,6.81862 16.64165,15.50121 15.69192,42.76735 -0.42663,12.24839 -1.26274,18.75227 -2.89856,22.54717 -4.85681,11.2672 -15.0371,17.90305 -31.58459,20.58788 -11.40223,1.85 -34.32938,1.58282 -45.91257,-0.53506 z m 1395.37995,-0.80551 c -15.6802,-4.10515 -24.4106,-10.93523 -30.5677,-23.91398 l -3.4789,-7.33333 v -50 -50 l 3.4579,-7.33333 c 5.8923,-12.49624 15.9862,-20.14401 31.8755,-24.15077 9.3238,-2.35117 46.4174,-2.39997 59.3333,-0.0781 15.0467,2.70496 13.8383,1.08773 11.8027,15.79599 -0.9785,7.06948 -2.0141,13.08871 -2.3015,13.37608 -0.2874,0.28737 -4.6427,-0.24063 -9.6785,-1.17333 -5.0358,-0.93271 -18.156,-1.7125 -29.156,-1.73287 -22.6234,-0.0419 -26.8198,1.27275 -31.9528,10.01014 -2.5373,4.31881 -2.7389,7.17962 -3.0978,43.95282 -0.378,38.72154 -0.3365,39.42665 2.6667,45.33333 4.6789,9.20278 11.3223,12 28.4997,12 7.453,0 15.4258,-0.375 17.7175,-0.83334 l 4.1667,-0.83333 v -24.5 -24.5 h 14.6666 14.6667 v 35.89313 35.89313 l -9,2.03505 c -24.173,5.46592 -53.3819,6.3439 -69.6201,2.09267 z M 32.000001,610.66665 v -81.33333 h 50.000002 50.000007 v 13.33333 13.33333 H 98.000004 64.000003 v 20 20 h 31.333334 31.333333 v 13.33334 13.33333 H 95.333337 64.000003 v 21.33333 21.33333 h 34.000001 34.000006 v 13.33334 13.33333 H 82.000003 32.000001 Z m 177.333339,80.4162 c 0,-0.76918 33.89023,-108.85053 46.85128,-149.4162 l 3.94059,-12.33333 h 21.62157 21.62157 l 25.15435,79.66666 c 13.83489,43.81667 25.43332,80.43559 25.77429,81.37538 0.48726,1.343 -2.89372,1.62837 -15.79728,1.33333 l -16.41722,-0.37538 -5.12444,-16.33333 -5.12444,-16.33333 h -30.37242 -30.37241 l -1.65056,5.66666 c -0.90781,3.11667 -3.13909,10.61667 -4.9584,16.66667 l -3.30785,11 h -15.91931 c -8.75563,0 -15.91932,-0.41271 -15.91932,-0.91713 z m 94.33163,-60.74953 c -0.34119,-0.91667 -5.32499,-18.02837 -11.07511,-38.02599 -5.75011,-19.99763 -10.87194,-35.59763 -11.38183,-34.66667 -0.72184,1.31796 -11.87939,38.36979 -21.28791,70.69266 l -1.06729,3.66666 h 22.71624 c 17.61496,0 22.57694,-0.37427 22.0959,-1.66666 z m 352.33506,37.74711 v -23.91955 l -24.16172,-53.08045 c -13.28894,-29.19424 -24.997,-55.03044 -26.01789,-57.41378 l -1.85618,-4.33333 h 16.37655 16.37655 l 17.30801,40.53165 c 9.51941,22.2924 17.64405,40.32742 18.05477,40.07782 0.41072,-0.24961 8.4597,-18.48885 17.88663,-40.53165 l 17.13986,-40.07782 h 16.39095 16.39094 l -3.75394,8.33333 c -2.06467,4.58333 -13.73957,30.29698 -25.94423,57.14143 l -22.1903,48.80809 v 24.1919 24.19191 h -16 -16 z m 308.00001,-57.41378 v -81.33333 h 16 16 v 68 67.99999 h 33.33336 33.3333 v 13.33334 13.33333 h -49.3333 -49.33336 z m 175.99996,0 v -81.33333 h 15.3334 15.3333 v 81.33333 81.33333 H 1155.3334 1140 Z m 130.0411,1.66667 c -13.0696,-43.81667 -24.0397,-80.41667 -24.378,-81.33333 -0.4705,-1.27506 3.1537,-1.66667 15.4242,-1.66667 h 16.0393 l 1.3939,4.33333 c 0.7666,2.38334 9.5639,32.53333 19.5496,67 9.9856,34.46667 18.3502,62.86188 18.5878,63.10048 0.2376,0.2386 0.7599,-0.6614 1.1607,-2 0.4008,-1.3386 8.8808,-30.63381 18.8445,-65.10048 9.9638,-34.46667 18.4311,-63.71666 18.8163,-65 0.6161,-2.05273 2.6137,-2.33333 16.6105,-2.33333 8.7506,0 15.9102,0.28333 15.9102,0.62963 0,0.34629 -10.5301,35.89629 -23.4001,78.99999 -12.87,43.10371 -23.7104,79.42037 -24.0898,80.70371 -0.6225,2.10543 -2.9371,2.33333 -23.698,2.33333 h -23.0082 z m 192.6256,-1.66667 v -81.33333 h 15.3334 15.3333 v 81.33333 81.33333 h -15.3333 -15.3334 z m 132,0 v -81.33333 h 20.3401 20.34 l 30.9184,61.66666 30.9184,61.66667 0.075,-61.66667 0.075,-61.66666 h 15.3333 15.3334 v 81.33333 81.33333 h -21.0069 -21.0068 l -30.6598,-61 -30.6599,-61 -0.3468,61 -0.3467,61 h -14.6533 -14.6532 z M 33.333335,229.33333 V 26.666666 H 71.333336 109.33334 V 229.33333 431.99999 H 71.333336 33.333335 Z M 137.33334,397.99999 v -34 h 69.33334 69.33333 v 34 34 H 206.66668 137.33334 Z M 364.00001,229.33333 V 26.666666 h 38.66667 38.66667 V 229.33333 431.99999 h -38.66667 -38.66667 z m 281.9535,200.99999 C 645.60729,429.41665 618.61385,339.26666 585.9681,229.99999 553.32234,120.73333 526.28401,30.283332 525.88291,28.999999 c -0.6832,-2.18598 1.75527,-2.333333 38.61324,-2.333333 h 39.3425 l 3.32215,11 c 9.19484,30.445201 79.50589,274.062984 79.50589,275.476624 0,0.90112 -6.32658,23.96253 -14.05908,51.24755 -20.88209,73.68492 -18.8416,67.60915 -22.70589,67.60915 -1.8253,0 -3.60199,-0.75 -3.94821,-1.66667 z m 38.04652,-0.075 c 0,-2.14162 15.0288,-54.46836 72.54825,-252.59598 23.89847,-82.319025 43.45175,-149.969023 43.45175,-150.333333 0,-0.364309 18,-0.662381 40,-0.662381 22.00001,0 39.98717,0.15 39.97148,0.333333 -0.0157,0.183334 -27.20753,91.233331 -60.42632,202.333331 l -60.39778,201.99999 -37.57369,0.3541 c -30.65575,0.2889 -37.57369,0.0258 -37.57369,-1.42906 z M 964.00004,229.33333 V 26.666666 H 1002 1040 V 229.33333 431.99999 h -38 -37.99996 z m 213.33336,0 V 26.666666 h 51.0033 51.0033 l 62.9967,126.001864 62.9967,126.00187 -0.074,74.99813 -0.073,74.99812 -76.2598,-151.99999 -76.2598,-152 -0.3389,153.66667 -0.339,153.66666 h -37.3277 -37.3277 z m 256,0 V 26.666666 h 37.3333 37.3334 V 229.33333 431.99999 h -37.3334 -37.3333 z m 142.6695,202.33332 c 0,-0.18333 28.6683,-91.23333 63.704,-202.33332 54.6693,-173.359229 64.0534,-201.999997 66.1851,-201.999997 2.1215,0 4.9049,8.207838 19.0789,56.260944 l 16.595,56.260943 -20.1757,68.40572 c -11.0967,37.62315 -20.4894,69.45572 -20.8728,70.73905 -0.6534,2.18744 1.9177,2.33334 41.1212,2.33334 h 41.8183 l 9.1142,30.99999 c 5.0129,17.05 9.4051,32.05 9.7605,33.33334 0.6086,2.19755 -2.9127,2.33417 -60.5094,2.34781 l -61.1555,0.0145 -12.6597,41.98552 -12.6597,41.98552 h -39.6736 c -21.8205,0 -39.6724,-0.15 -39.6708,-0.33334 z m 281.3305,-0.3875 c 0,-0.39646 -26.3529,-89.94646 -58.5619,-198.99999 -32.2091,-109.05354 -58.9741,-199.929161 -59.4779,-201.945828 l -0.9159,-3.666666 h 36.1445 c 19.8795,0 36.1445,0.297669 36.1445,0.661487 0,0.363818 28.5,91.019717 63.3334,201.457567 34.8333,110.43784 63.3333,201.34017 63.3333,202.00517 0,0.69637 -16.9622,1.2091 -40,1.2091 -22,0 -40,-0.32438 -40,-0.72084 z"
       id="path1" />
  </g>
</svg>
